<svg width="32" height="32" viewBox="0 0 32 32" fill="none" xmlns="http://www.w3.org/2000/svg">
<path fill-rule="evenodd" clip-rule="evenodd" d="M23.1523 8.28817C23.951 11.2703 23.2486 14.0502 21.045 16.6281C22.2608 17.0732 23.0045 18.0143 23.276 19.4513C23.6823 21.51 22.9187 23.8225 20.9852 26.3888C20.7944 26.2554 20.7249 26.0305 20.7766 25.7144C20.8833 25.1959 23.1331 22.0169 20.8613 19.0145C20.1832 18.0503 19.0658 17.4423 17.5091 17.1907C17.4686 20.0197 17.6352 22.4482 18.0087 24.4764C18.6171 27.7792 18.9377 29.5649 18.9377 29.8128C18.9377 29.9781 18.7295 30.0339 18.3131 29.9803C16.9602 29.2015 15.823 27.8335 14.9018 25.8761C13.9805 23.9187 13.4361 21.0501 13.2686 17.2702C14.0048 16.9713 14.7454 16.7892 15.4901 16.724C16.2349 16.6588 16.9129 16.5691 17.524 16.4549C17.5239 16.4572 17.5239 16.4595 17.5238 16.4617C18.3186 16.339 19.0326 16.301 19.666 16.3478C20.5893 15.3609 21.5638 13.5159 21.217 10.4147C20.8968 7.82763 17.5802 5.27056 14.2347 6.6344C11.7712 7.63947 10.3065 9.3096 9.84038 11.6448C9.56593 11.5195 9.31801 11.2385 9.09661 10.8018C8.74928 10.1789 10.4355 7.36225 12.9426 5.41358C16.9768 2.65565 21.8573 3.45286 23.1523 8.28817Z" fill="#EEBD2F"/>
<path fill-rule="evenodd" clip-rule="evenodd" d="M17.5196 16.4557C16.5376 16.9924 15.6504 17.5994 14.8579 18.2766C14.1091 18.9166 13.6428 19.4504 13.4589 19.8777C13.373 19.063 13.3096 18.1938 13.2686 17.2702C14.0049 16.9713 14.7454 16.7892 15.4902 16.724C16.235 16.6588 16.9129 16.5691 17.524 16.4549L17.5196 16.4557Z" fill="#D8A000"/>
<path fill-rule="evenodd" clip-rule="evenodd" d="M14.9113 9.96462C15.6437 10.2268 15.311 10.4671 15.6447 10.5565C15.695 10.57 15.9595 10.4991 16.1356 10.4249C16.3643 10.3285 16.5391 10.7334 16.7172 10.8677C16.9368 11.0334 17.1564 10.9689 17.4263 11.2265C17.4996 13.9953 17.5248 15.1154 17.524 16.4549C17.4783 16.4616 17.4332 16.4681 17.3887 16.4746C15.1111 16.83 12.2107 18.5025 11.3758 20.519C9.90376 23.7701 11.2019 27.4599 11.1898 27.4632C10.355 27.687 7.65721 24.7579 8.55141 21.0306C9.08711 18.4938 11.2111 17.2886 13.2899 16.7557C13.2785 15.1281 13.8065 12.1962 14.9113 9.96462Z" fill="#FCDE8A"/>
</svg>
